<svg width="20" height="20" viewBox="0 0 20 20" fill="none" xmlns="http://www.w3.org/2000/svg">
<path d="M10 1.875C5.5 1.875 1.875 5.5 1.875 10C1.875 14.5 5.5 18.125 10 18.125C14.5 18.125 18.125 14.5 18.125 10C18.125 9.12625 18.0075 8.25437 17.695 7.44125L16.68 8.4375C16.805 8.9375 16.8756 9.43875 16.8756 10C16.8756 13.8138 13.8144 16.875 10.0006 16.875C6.18687 16.875 3.125 13.8138 3.125 10C3.125 6.18625 6.18625 3.125 10 3.125C11.875 3.125 13.5594 3.87187 14.7463 5.05875L15.625 4.18C14.1875 2.74125 12.1875 1.875 10 1.875ZM17.0506 4.55063L10 11.6019L7.32438 8.92562L6.42562 9.82438L9.55062 12.9494L10 13.3787L10.4494 12.9494L17.9494 5.44937L17.0506 4.55063Z" fill="white"/>
</svg>
