<svg height="512" width="512" xmlns="http://www.w3.org/2000/svg"><path d="M321.672 0L439.83 49.627a45.414 45.414 0 0124.186 32.893l15.507 103.607a9.04 9.04 0 01-6.635 10.079l-55.403 14.609V498.63c0 7.384-5.986 13.37-13.37 13.37h-296.23c-7.384 0-13.37-5.986-13.37-13.37V210.815l-55.403-14.609a9.04 9.04 0 01-6.635-10.079L47.984 82.52A45.418 45.418 0 0172.17 49.627L190.328 0c43.782 20.023 87.563 20.023 131.344 0z" fill="#d6f6b2"/><path d="M321.672 0L439.83 49.627a45.414 45.414 0 0124.186 32.893l15.507 103.607a9.04 9.04 0 01-6.635 10.079l-55.403 14.609V498.63c0 7.384-5.986 13.37-13.37 13.37h-296.23c-7.384 0-13.37-5.986-13.37-13.37V210.815l-55.403-14.609a9.04 9.04 0 01-6.635-10.079L47.984 82.52A45.418 45.418 0 0172.17 49.627L190.328 0c43.782 20.023 87.563 20.023 131.344 0z" fill="#d6f6b2"/><path d="M464.015 82.52a45.416 45.416 0 00-24.186-32.893L321.672 0l-26.127 16.483L413.703 66.11a45.42 45.42 0 0124.186 32.893l6.173 47.475c1.851 14.239-6.716 27.773-20.378 32.192l-12.189 3.942a29.795 29.795 0 00-20.627 28.398l.485 300.99h12.762c7.384 0 13.37-5.986 13.37-13.37V210.815l55.403-14.609a9.04 9.04 0 006.635-10.079z" fill="#ccf49f"/><path d="M321.672 0C277.89 20.023 234.11 20.023 190.328 0l-25.73 10.807c.258 23.633 9.452 45.921 25.989 62.856 16.776 17.179 39.233 26.954 63.238 27.526.735.017 1.474.026 2.204.026h.005c24.373 0 47.307-9.495 64.57-26.735 17.054-17.03 26.533-39.609 26.795-63.673zM94.515 155.634a7.725 7.725 0 00-7.726 7.726l-7.09 43.548 14.817 3.907 7.726-47.455a7.727 7.727 0 00-7.727-7.726zm330.696 7.726a7.726 7.726 0 10-15.452 0l7.72 47.458c0 .046.006.09.007.136v-.139l14.81-3.905z" fill="#95d6a4"/><path d="M254.439 75.441c36.87.877 67.233-28.772 67.233-65.653V0C277.89 20.023 234.11 20.023 190.328 0v9.788c0 35.661 28.46 64.805 64.111 65.653z" fill="#86a0af"/><path d="M321.672 9.788V0c-14.458 6.612-28.915 11.027-43.373 13.272 1.062 17.961-2.978 42.247-25.916 62.069.685.037 1.366.084 2.057.1 36.869.877 67.232-28.773 67.232-65.653z" fill="#738b95"/><path d="M268.672 45.456h-25.344a7.726 7.726 0 110-15.452h25.344a7.726 7.726 0 110 15.452z" fill="#d6f6b2"/><path d="M417.485 482.791H94.515a7.726 7.726 0 110-15.452h322.97a7.726 7.726 0 110 15.452z" fill="#95d6a4"/><path d="M237.243 331.462l-30.789-50.941a21.918 21.918 0 010-22.674l30.789-50.941c8.526-14.107 28.988-14.107 37.514 0l30.789 50.941a21.918 21.918 0 010 22.674l-30.789 50.941c-8.526 14.107-28.988 14.107-37.514 0z" fill="#86a0af"/><path d="M305.546 257.846l-30.789-50.941c-7.408-12.257-23.823-13.858-33.595-4.815a22.141 22.141 0 013.92 4.815l30.789 50.941a21.918 21.918 0 010 22.674l-30.789 50.942a22.141 22.141 0 01-3.92 4.815c9.771 9.043 26.186 7.442 33.595-4.815l30.789-50.942a21.918 21.918 0 000-22.674z" fill="#738b95"/><path d="M264.974 276.91h-17.949a7.726 7.726 0 110-15.452h17.949c4.268 0 7.726 3.459 7.726 7.726s-3.458 7.726-7.726 7.726z" fill="#d6f6b2"/></svg>