<svg id="Capa_1" enable-background="new 0 0 512 512" height="512" viewBox="0 0 512 512" width="512" xmlns="http://www.w3.org/2000/svg"><g><path d="m321.672 0 118.158 49.627c12.814 6.518 21.785 18.719 24.186 32.893l15.507 103.607c.683 4.56-2.177 8.903-6.635 10.079l-55.403 14.609v287.815c0 7.384-5.986 13.37-13.37 13.37h-296.23c-7.384 0-13.37-5.986-13.37-13.37v-287.815l-55.403-14.609c-4.459-1.176-7.318-5.519-6.635-10.079l15.507-103.607c2.402-14.174 11.372-26.374 24.186-32.893l118.158-49.627c43.782 20.023 87.563 20.023 131.344 0z" fill="#d6f6b2"/><path d="m321.672 0 118.158 49.627c12.814 6.518 21.785 18.719 24.186 32.893l15.507 103.607c.683 4.56-2.177 8.903-6.635 10.079l-55.403 14.609v287.815c0 7.384-5.986 13.37-13.37 13.37h-296.23c-7.384 0-13.37-5.986-13.37-13.37v-287.815l-55.403-14.609c-4.459-1.176-7.318-5.519-6.635-10.079l15.507-103.607c2.402-14.174 11.372-26.374 24.186-32.893l118.158-49.627c43.782 20.023 87.563 20.023 131.344 0z" fill="#d6f6b2"/><path d="m464.015 82.52c-2.401-14.174-11.372-26.374-24.186-32.893l-118.157-49.627-26.127 16.483 118.158 49.627c12.813 6.518 21.784 18.719 24.186 32.893l6.173 47.475c1.851 14.239-6.716 27.773-20.378 32.192l-12.189 3.942c-12.313 3.982-20.648 15.457-20.627 28.398l.485 300.99h12.762c7.384 0 13.37-5.986 13.37-13.37v-287.815l55.403-14.609c4.459-1.176 7.318-5.519 6.635-10.079z" fill="#ccf49f"/><g fill="#95d6a4"><path d="m321.672 0c-43.782 20.023-87.562 20.023-131.344 0l-25.73 10.807c.258 23.633 9.452 45.921 25.989 62.856 16.776 17.179 39.233 26.954 63.238 27.526.735.017 1.474.026 2.204.026h.005c24.373 0 47.307-9.495 64.57-26.735 17.054-17.03 26.533-39.609 26.795-63.673z"/><path d="m94.515 155.634c-4.268 0-7.726 3.459-7.726 7.726l-7.09 43.548 14.817 3.907 7.726-47.455c-.001-4.267-3.46-7.726-7.727-7.726z"/><path d="m425.211 163.36c0-4.267-3.459-7.726-7.726-7.726s-7.726 3.459-7.726 7.726l7.72 47.458c0 .046.006.09.007.136v-.139l14.81-3.905z"/></g><path d="m254.439 75.441c36.87.877 67.233-28.772 67.233-65.653v-9.788c-43.782 20.023-87.562 20.023-131.344 0v9.788c0 35.661 28.46 64.805 64.111 65.653z" fill="#86a0af"/><path d="m321.672 9.788v-9.788c-14.458 6.612-28.915 11.027-43.373 13.272 1.062 17.961-2.978 42.247-25.916 62.069.685.037 1.366.084 2.057.1 36.869.877 67.232-28.773 67.232-65.653z" fill="#738b95"/><g><path d="m268.672 45.456h-25.344c-4.268 0-7.726-3.459-7.726-7.726s3.459-7.726 7.726-7.726h25.344c4.268 0 7.726 3.459 7.726 7.726s-3.459 7.726-7.726 7.726z" fill="#d6f6b2"/></g><g><path d="m417.485 482.791h-322.97c-4.268 0-7.726-3.459-7.726-7.726s3.459-7.726 7.726-7.726h322.97c4.268 0 7.726 3.459 7.726 7.726s-3.459 7.726-7.726 7.726z" fill="#95d6a4"/></g><path d="m237.243 331.462-30.789-50.941c-4.213-6.971-4.213-15.703 0-22.674l30.789-50.941c8.526-14.107 28.988-14.107 37.514 0l30.789 50.941c4.213 6.971 4.213 15.703 0 22.674l-30.789 50.941c-8.526 14.107-28.988 14.107-37.514 0z" fill="#86a0af"/><path d="m305.546 257.846-30.789-50.941c-7.408-12.257-23.823-13.858-33.595-4.815 1.475 1.365 2.802 2.965 3.92 4.815l30.789 50.941c4.213 6.971 4.213 15.703 0 22.674l-30.789 50.942c-1.118 1.85-2.445 3.45-3.92 4.815 9.771 9.043 26.186 7.442 33.595-4.815l30.789-50.942c4.213-6.971 4.213-15.703 0-22.674z" fill="#738b95"/><g><path d="m264.974 276.91h-17.949c-4.268 0-7.726-3.459-7.726-7.726s3.459-7.726 7.726-7.726h17.949c4.268 0 7.726 3.459 7.726 7.726s-3.458 7.726-7.726 7.726z" fill="#d6f6b2"/></g></g></svg>