<svg id="Capa_1" enable-background="new 0 0 512 512" height="512" viewBox="0 0 512 512" width="512" xmlns="http://www.w3.org/2000/svg"><g><g><path d="m450.09 279.572c.979 1.451-10.349.724-9.433 2.201-37.066 38.602-100.773 66.045-170.412 66.045-83.233 0-154.882-36.071-187.023-87.895-1.069 1.114-14.386-2.775-15.414-1.639-21.296 23.518-41.461 43.74-41.461 74.008 0 18.16 24.497 48.51 32.666 64.606 46.957 48.704 117.766 79.72 196.987 79.72 68.025 0 129.846-22.873 175.693-60.172 15.831-21.161 41.417-42.831 41.417-68.617 0-23.567-9.642-48.441-23.02-68.257z" fill="#ffe07d"/></g><path d="m414.101 429.512c6.092-4.128 11.964-8.487 17.592-13.066 4.488-5.998 9.759-12.038 15.009-18.2 7.361-16.471 9.818-34.337 9.818-53.005 0-21.839-4.618-44.38-16.211-63.072-.206.215-.437.422-.666.629-5.476 5.602-11.502 10.968-18.04 16.038 6.496 24.974 12.038 72.758-7.502 130.676z" fill="#ffd064"/><path d="m80.383 416.485c-15.346-83.586 8.312-129.704 14.118-140.965-4.157-5.018-7.943-10.216-11.279-15.597-.796.829-8.379-1.113-12.627-1.692-18.67 24.942-33.905 60.3-33.905 87.01 0 18.161 14.153 35.56 22.322 51.657 6.654 6.901 13.803 13.433 21.371 19.587z" fill="#ffd064"/><g><path d="m256 35.382c-141.385 0-256 98.774-256 220.618 0 55.626 23.898 106.437 63.317 145.243-1.456-1.433-2.892-2.88-4.305-4.346-8.169-16.096-12.635-33.496-12.635-51.656 0-82.387 91.814-149.176 205.072-149.176s205.071 66.789 205.071 149.176c0 25.787-8.996 50.044-24.827 71.205 49.442-40.224 80.307-97.226 80.307-160.446 0-121.844-114.615-220.618-256-220.618z" fill="#eab14d"/></g><g><path d="m270.244 427.489c-10.111 0-18.804-6.052-26.473-11.392-5.513-3.838-10.72-7.464-15.159-8.132-4.933-.737-11.552 1.33-17.954 3.331-9.123 2.855-18.556 5.806-27.706 2.875-9.846-3.151-16.265-11.802-21.929-19.435-3.929-5.295-7.64-10.297-11.521-12.363-3.767-2.005-5.194-6.684-3.189-10.451 2.005-3.765 6.683-5.192 10.451-3.189 6.955 3.703 11.893 10.358 16.669 16.795 4.484 6.042 9.12 12.291 14.229 13.927 4.494 1.433 11.553-.77 18.382-2.906 8.069-2.526 16.414-5.145 24.867-3.863 8.007 1.204 14.963 6.047 21.688 10.73 6.088 4.238 12.382 8.621 17.644 8.621 3.537 0 8.657-4.117 13.174-7.748 5.977-4.805 12.157-9.774 19.689-10.711 7.848-.969 15.591 2.527 22.422 5.621 5.106 2.311 10.886 4.926 13.951 4.133 3.458-.901 7.358-6.248 10.799-10.966 4.466-6.124 9.085-12.456 15.981-15.345 3.938-1.653 8.463.205 10.112 4.14 1.649 3.936-.204 8.463-4.14 10.112-2.923 1.224-6.249 5.787-9.468 10.199-4.965 6.807-10.592 14.522-19.388 16.814-8.348 2.175-16.783-1.641-24.22-5.01-5.215-2.362-10.617-4.808-14.137-4.363-3.179.395-7.621 3.967-11.917 7.421-6.505 5.228-13.878 11.155-22.857 11.155z" fill="#ffd064"/></g><path d="m289.035 80.423h-66.07c-2.393 0-4.699.902-6.457 2.526l-26.454 24.432c-4.08 3.768-4.08 10.214 0 13.982l26.454 24.432c1.758 1.624 4.064 2.526 6.457 2.526h66.07c2.393 0 4.699-.902 6.457-2.526l26.454-24.432c4.08-3.768 4.08-10.214 0-13.982l-26.454-24.432c-1.758-1.625-4.064-2.526-6.457-2.526z" fill="#dd636e"/><path d="m265.45 80.423h-18.9c-2.358 0-4.475 1.442-5.338 3.636l-11.101 28.212c-.531 1.35-.531 2.851 0 4.201l11.101 28.212c.863 2.194 2.981 3.636 5.338 3.636h18.901c2.358 0 4.475-1.442 5.338-3.636l11.101-28.212c.531-1.35.531-2.851 0-4.201l-11.101-28.212c-.863-2.194-2.981-3.636-5.339-3.636z" fill="#da4a54"/><g><g><path d="m123.797 149.353c-2.794 0-5.49-1.52-6.865-4.172-1.964-3.788-.486-8.452 3.303-10.415l21.799-11.303c3.788-1.965 8.451-.486 10.415 3.303 1.964 3.788.486 8.452-3.303 10.415l-21.799 11.303c-1.136.59-2.351.869-3.55.869z" fill="#e49542"/></g><g><path d="m388.203 149.353c-1.198 0-2.413-.28-3.55-.869l-21.799-11.303c-3.789-1.964-5.267-6.628-3.303-10.415 1.964-3.791 6.63-5.266 10.415-3.303l21.799 11.303c3.789 1.964 5.267 6.628 3.303 10.415-1.374 2.652-4.072 4.172-6.865 4.172z" fill="#e49542"/></g></g><g><path d="m256 129.248c-4.268 0-7.726-3.459-7.726-7.726v-14.3c0-4.268 3.459-7.726 7.726-7.726s7.726 3.459 7.726 7.726v14.3c0 4.267-3.459 7.726-7.726 7.726z" fill="#f9f6f9"/></g><g fill="#f9f6f9"><path d="m458.42 79.554 11.237 30.06c.206.55.64.984 1.19 1.19l30.06 11.237c1.758.657 1.758 3.144 0 3.801l-30.06 11.237c-.55.206-.984.64-1.19 1.19l-11.237 30.06c-.657 1.758-3.144 1.758-3.801 0l-11.237-30.06c-.206-.55-.64-.984-1.19-1.19l-30.06-11.237c-1.758-.657-1.758-3.144 0-3.801l30.06-11.237c.55-.206.984-.64 1.19-1.19l11.237-30.06c.658-1.758 3.144-1.758 3.801 0z"/><path d="m136.591 170.965 11.237 30.06c.206.55.64.984 1.19 1.19l30.06 11.237c1.758.657 1.758 3.144 0 3.801l-30.06 11.237c-.55.206-.984.64-1.19 1.19l-11.237 30.06c-.657 1.758-3.144 1.758-3.801 0l-11.237-30.06c-.206-.55-.64-.984-1.19-1.19l-30.06-11.237c-1.758-.657-1.758-3.144 0-3.801l30.06-11.237c.55-.206.984-.64 1.19-1.19l11.237-30.06c.657-1.758 3.144-1.758 3.801 0z"/></g></g></svg>